<svg xmlns="http://www.w3.org/2000/svg" xmlns:xlink="http://www.w3.org/1999/xlink" width="500" zoomAndPan="magnify" viewBox="0 0 375 374.999991" height="500" preserveAspectRatio="xMidYMid meet" version="1.0"><defs><g/><clipPath id="011e8a92eb"><rect x="0" width="365" y="0" height="375"/></clipPath><clipPath id="31482f1829"><path d="M 279 52 L 321 52 L 321 117 L 279 117 Z M 279 52 " clip-rule="nonzero"/></clipPath><clipPath id="eb34b6a1d1"><path d="M 324 73 L 337.15625 73 L 337.15625 77 L 324 77 Z M 324 73 " clip-rule="nonzero"/></clipPath><clipPath id="faa6817d91"><path d="M 262.90625 73 L 276 73 L 276 77 L 262.90625 77 Z M 262.90625 73 " clip-rule="nonzero"/></clipPath><clipPath id="4f74dfafe6"><path d="M 298 37.5 L 302 37.5 L 302 51 L 298 51 Z M 298 37.5 " clip-rule="nonzero"/></clipPath></defs><g transform="matrix(1, 0, 0, 1, 0, 0)"><g clip-path="url(#011e8a92eb)"><g fill="#5170ff" fill-opacity="1"><g transform="translate(0.0000045, 349.22392)"><g><path d="M 168.34375 0 L 156.921875 -29.40625 L 155.375 -29.40625 C 145.445312 -16.894531 135.222656 -8.21875 124.703125 -3.375 C 114.191406 1.457031 100.488281 3.875 83.59375 3.875 C 62.820312 3.875 46.46875 -2.054688 34.53125 -13.921875 C 22.601562 -25.796875 16.640625 -42.695312 16.640625 -64.625 C 16.640625 -87.59375 24.671875 -104.523438 40.734375 -115.421875 C 56.796875 -126.316406 81.015625 -132.347656 113.390625 -133.515625 L 150.921875 -134.671875 L 150.921875 -144.15625 C 150.921875 -166.082031 139.703125 -177.046875 117.265625 -177.046875 C 99.972656 -177.046875 79.65625 -171.820312 56.3125 -161.375 L 36.765625 -201.234375 C 61.660156 -214.265625 89.265625 -220.78125 119.578125 -220.78125 C 148.609375 -220.78125 170.863281 -214.457031 186.34375 -201.8125 C 201.820312 -189.175781 209.5625 -169.957031 209.5625 -144.15625 L 209.5625 0 Z M 150.921875 -100.234375 L 128.09375 -99.453125 C 110.9375 -98.941406 98.164062 -95.847656 89.78125 -90.171875 C 81.394531 -84.492188 77.203125 -75.847656 77.203125 -64.234375 C 77.203125 -47.597656 86.75 -39.28125 105.84375 -39.28125 C 119.519531 -39.28125 130.453125 -43.210938 138.640625 -51.078125 C 146.828125 -58.953125 150.921875 -69.398438 150.921875 -82.421875 Z M 150.921875 -100.234375 "/></g></g></g><g fill="#5170ff" fill-opacity="1"><g transform="translate(239.348559, 349.22392)"><g><path d="M 28.4375 -272.25 C 28.4375 -291.46875 39.144531 -301.078125 60.5625 -301.078125 C 81.976562 -301.078125 92.6875 -291.46875 92.6875 -272.25 C 92.6875 -263.09375 90.007812 -255.960938 84.65625 -250.859375 C 79.300781 -245.765625 71.269531 -243.21875 60.5625 -243.21875 C 39.144531 -243.21875 28.4375 -252.894531 28.4375 -272.25 Z M 89.96875 0 L 30.953125 0 L 30.953125 -216.328125 L 89.96875 -216.328125 Z M 89.96875 0 "/></g></g></g></g></g><g clip-path="url(#31482f1829)"><path fill="#ffffff" d="M 314.316406 58.335938 C 310.566406 54.539062 305.550781 52.40625 300.21875 52.339844 C 300.136719 52.339844 300.050781 52.339844 299.96875 52.339844 C 289.054688 52.339844 280.019531 61.136719 279.789062 72.070312 C 279.671875 77 281.371094 81.785156 284.539062 85.535156 C 288.753906 90.53125 290.871094 93.050781 290.871094 99.132812 L 290.871094 110.230469 C 290.871094 110.964844 291.46875 111.5625 292.203125 111.5625 L 293.21875 111.5625 C 293.835938 114.710938 296.636719 117.113281 299.96875 117.113281 C 303.300781 117.113281 306.101562 114.730469 306.71875 111.5625 L 307.734375 111.5625 C 308.46875 111.5625 309.066406 110.964844 309.066406 110.230469 L 309.066406 99.132812 C 309.066406 93.066406 311.167969 90.566406 315.351562 85.601562 L 315.433594 85.5 C 318.484375 81.867188 320.164062 77.269531 320.164062 72.519531 C 320.148438 67.167969 318.082031 62.136719 314.316406 58.335938 Z M 299.96875 114.445312 C 298.117188 114.445312 296.535156 113.246094 295.96875 111.5625 L 303.96875 111.5625 C 303.402344 113.246094 301.820312 114.445312 299.96875 114.445312 Z M 306.402344 108.898438 L 293.535156 108.898438 L 293.535156 106.015625 L 306.402344 106.015625 Z M 306.402344 103.347656 L 293.535156 103.347656 L 293.535156 100.464844 L 306.402344 100.464844 Z M 302.5 97.816406 L 297.402344 97.816406 L 297.402344 84.734375 C 297.402344 84.433594 297.300781 84.132812 297.101562 83.898438 L 292.953125 78.71875 L 292.953125 73.917969 L 295.871094 75.867188 C 296.402344 76.21875 297.101562 76.152344 297.550781 75.703125 L 300.070312 73.183594 L 303.585938 75.816406 C 304.050781 76.167969 304.71875 76.167969 305.183594 75.816406 L 307.484375 74.085938 L 307.484375 78.617188 L 302.601562 83.5 C 302.351562 83.75 302.203125 84.101562 302.21875 84.46875 Z M 313.382812 83.800781 L 313.300781 83.898438 C 309.265625 88.683594 306.734375 91.699219 306.417969 97.816406 L 305.167969 97.816406 L 304.902344 85 L 309.765625 80.132812 C 310.015625 79.882812 310.152344 79.550781 310.152344 79.183594 L 310.152344 71.417969 C 310.152344 70.917969 309.867188 70.453125 309.417969 70.21875 C 308.96875 69.984375 308.417969 70.035156 308.019531 70.351562 L 304.386719 73.085938 L 300.75 70.351562 C 300.21875 69.953125 299.484375 70.003906 299.003906 70.46875 L 296.453125 73.019531 L 292.371094 70.300781 C 291.953125 70.035156 291.4375 70.003906 291.003906 70.234375 C 290.570312 70.46875 290.304688 70.917969 290.304688 71.417969 L 290.304688 79.183594 C 290.304688 79.484375 290.402344 79.785156 290.601562 80.015625 L 294.753906 85.199219 L 294.753906 97.816406 L 293.503906 97.816406 C 293.1875 91.664062 290.636719 88.632812 286.570312 83.816406 C 283.820312 80.550781 282.355469 76.402344 282.453125 72.117188 C 282.671875 62.554688 290.621094 54.886719 300.183594 55.003906 C 304.816406 55.054688 309.167969 56.902344 312.433594 60.203125 C 315.699219 63.503906 317.5 67.886719 317.5 72.519531 C 317.484375 76.632812 316.03125 80.652344 313.382812 83.800781 Z M 313.382812 83.800781 " fill-opacity="1" fill-rule="nonzero"/></g><g clip-path="url(#eb34b6a1d1)"><path fill="#ffffff" d="M 336.164062 73.5 L 326.28125 73.5 C 325.546875 73.5 324.949219 74.101562 324.949219 74.835938 C 324.949219 75.566406 325.546875 76.167969 326.28125 76.167969 L 336.164062 76.167969 C 336.898438 76.167969 337.496094 75.566406 337.496094 74.835938 C 337.496094 74.101562 336.898438 73.5 336.164062 73.5 Z M 336.164062 73.5 " fill-opacity="1" fill-rule="nonzero"/></g><g clip-path="url(#faa6817d91)"><path fill="#ffffff" d="M 275.457031 74.835938 C 275.457031 74.101562 274.855469 73.5 274.121094 73.5 L 264.242188 73.5 C 263.507812 73.5 262.90625 74.101562 262.90625 74.835938 C 262.90625 75.566406 263.507812 76.167969 264.242188 76.167969 L 274.121094 76.167969 C 274.855469 76.167969 275.457031 75.585938 275.457031 74.835938 Z M 275.457031 74.835938 " fill-opacity="1" fill-rule="nonzero"/></g><path fill="#ffffff" d="M 319.582031 92.347656 C 319.066406 91.832031 318.214844 91.832031 317.699219 92.347656 C 317.183594 92.867188 317.183594 93.714844 317.699219 94.230469 L 324.683594 101.214844 C 324.949219 101.480469 325.28125 101.597656 325.632812 101.597656 C 325.980469 101.597656 326.316406 101.464844 326.582031 101.214844 C 327.097656 100.699219 327.097656 99.847656 326.582031 99.332031 Z M 319.582031 92.347656 " fill-opacity="1" fill-rule="nonzero"/><path fill="#ffffff" d="M 273.824219 48.472656 C 273.304688 48.988281 273.304688 49.839844 273.824219 50.355469 L 280.804688 57.335938 C 281.070312 57.605469 281.40625 57.71875 281.753906 57.71875 C 282.085938 57.71875 282.4375 57.585938 282.703125 57.335938 C 283.222656 56.820312 283.222656 55.972656 282.703125 55.453125 L 275.722656 48.472656 C 275.1875 47.957031 274.355469 47.957031 273.824219 48.472656 Z M 273.824219 48.472656 " fill-opacity="1" fill-rule="nonzero"/><g clip-path="url(#4f74dfafe6)"><path fill="#ffffff" d="M 298.867188 38.875 L 298.867188 48.753906 C 298.867188 49.488281 299.46875 50.089844 300.203125 50.089844 C 300.933594 50.089844 301.535156 49.488281 301.535156 48.753906 L 301.535156 38.875 C 301.535156 38.140625 300.933594 37.539062 300.203125 37.539062 C 299.46875 37.539062 298.867188 38.140625 298.867188 38.875 Z M 298.867188 38.875 " fill-opacity="1" fill-rule="nonzero"/></g><path fill="#ffffff" d="M 324.683594 48.472656 L 317.699219 55.453125 C 317.183594 55.972656 317.183594 56.820312 317.699219 57.335938 C 317.964844 57.605469 318.300781 57.71875 318.648438 57.71875 C 319 57.71875 319.332031 57.585938 319.597656 57.335938 L 326.582031 50.355469 C 327.097656 49.839844 327.097656 48.988281 326.582031 48.472656 C 326.046875 47.957031 325.214844 47.957031 324.683594 48.472656 Z M 324.683594 48.472656 " fill-opacity="1" fill-rule="nonzero"/><path fill="#ffffff" d="M 280.820312 92.347656 L 273.839844 99.332031 C 273.324219 99.847656 273.324219 100.699219 273.839844 101.214844 C 274.105469 101.480469 274.4375 101.597656 274.789062 101.597656 C 275.140625 101.597656 275.472656 101.464844 275.738281 101.214844 L 282.722656 94.230469 C 283.238281 93.714844 283.238281 92.867188 282.722656 92.347656 C 282.1875 91.816406 281.339844 91.816406 280.820312 92.347656 Z M 280.820312 92.347656 " fill-opacity="1" fill-rule="nonzero"/></svg>